<?xml version='1.0' encoding='utf-8'?>
<svg xmlns="http://www.w3.org/2000/svg" version="1.1" width="829px" height="592px" viewBox="145 805 829 592"> <g id="layer1"> <g style="fill:rgb(89,145,144); fill-opacity:1.0; stroke-linejoin: miter"> <path d="M144.999,804.52844C144.87418,804.52844,144.75447,804.578,144.66621,804.66626C144.57796,804.7545,144.52838,804.8742,144.52838,804.999L144.52939,1397.0C144.52939,1397.2599,144.74008,1397.4706,145.0,1397.4706L974.001,1397.4716C974.1258,1397.4716,974.2455,1397.422,974.33374,1397.3337C974.422,1397.2455,974.47156,1397.1257,974.47156,1397.001L974.4706,805.0C974.4706,804.7401,974.2599,804.5294,974.0,804.5294L144.999,804.52844 Z"/> </g> <g> <g style="fill:rgb(255,255,255); fill-opacity:1.0; stroke-linejoin: miter"> <path d="M338.61304,1220.0066L566.8245,1220.0076L795.03656,1220.0083Q795.0367,1279.2195,795.03656,1338.4309Q566.8244,1338.4309,338.61304,1338.4307Q338.61304,1279.2185,338.61304,1220.0066"/> </g> <g> <g style="fill:rgb(0,0,0); fill-opacity:1.0; stroke-linejoin: miter"> <path d="M521.02924,1313.9622L521.02924,1313.9622L521.02924,1313.9629L521.02924,1313.9622"/> </g> <g> <g style="fill:rgb(23,191,53); fill-opacity:1.0; stroke-linejoin: miter"> <path d="M657.64935,1287.6421L657.5881,1287.6433Q655.55023,1287.9578,655.79535,1290.0481Q657.13104,1293.2888,659.29254,1295.2695Q663.8442,1299.5706,670.6231,1299.6941L672.2187,1299.6187Q673.79974,1299.4668,675.28705,1299.0315Q678.27997,1298.1509,680.6799,1296.2766Q683.08,1294.4026,684.5982,1291.72Q685.55023,1289.9014,685.419,1289.8474Q685.5933,1289.1653,684.90546,1288.2559Q683.6761,1287.168,682.3288,1288.0771Q681.98553,1288.388,681.9461,1288.4834Q681.5516,1289.6108,679.9299,1291.7249Q678.4183,1293.457,676.3405,1294.5105Q675.30853,1295.0332,674.1762,1295.3608L673.0258,1295.6348Q671.8536,1295.8577,670.6225,1295.8589Q666.788,1295.8206,663.80096,1293.9451Q662.82367,1293.3313,661.9958,1292.5481L661.21246,1291.7273L660.5173,1290.8301Q659.9091,1289.9836,659.336,1288.6465Q659.3066,1288.5432,658.9925,1288.19Q658.4285,1287.6531,657.64935,1287.6421"/> </g> <g style="fill:rgb(23,191,53); fill-opacity:1.0; stroke-linejoin: miter"> <path d="M670.31036,1246.1626L668.14044,1246.2317Q661.5732,1246.6453,655.52435,1249.5371Q648.6716,1253.2905,646.331,1256.0798Q636.4124,1266.5154,636.4129,1280.0623Q636.4135,1293.6086,646.33246,1304.0464Q656.7658,1313.9629,670.3106,1313.9631Q683.85675,1313.9634,694.2934,1304.0437Q704.211,1293.6079,704.21075,1280.0627Q704.2105,1266.5176,694.2945,1256.083Q683.857,1246.1628,670.31036,1246.1626 Z M670.3117,1251.3918L672.14716,1251.4502Q680.4184,1252.4114,684.48334,1255.1201Q689.5026,1257.9644,693.15814,1262.7148Q700.1474,1272.3442,698.74896,1283.7283Q698.2828,1287.3926,696.8847,1290.8623L695.2537,1294.2349Q694.1065,1296.864,689.1606,1301.6855Q679.91437,1309.375,668.47577,1308.6755Q662.92145,1308.3264,657.80536,1305.8801Q652.00934,1302.7056,650.02997,1300.3467Q641.6407,1291.5195,641.6412,1280.062Q641.6418,1268.6052,650.02985,1259.779Q658.8554,1251.3921,670.3117,1251.3918"/> </g> <g style="fill:rgb(23,191,53); fill-opacity:1.0; stroke-linejoin: miter"> <path d="M687.017,1270.5234L686.967,1271.2668Q686.61163,1273.5127,684.88654,1274.8594Q683.1497,1276.2056,680.79596,1275.9512Q678.54974,1275.5955,677.2028,1273.8704Q676.7713,1273.3127,676.4919,1272.655L676.25714,1271.9795Q676.06354,1271.2817,676.06146,1270.5232Q676.1202,1268.1951,677.6661,1266.6497Q679.21173,1265.104,681.53925,1265.0457Q683.8671,1265.104,685.4128,1266.6497Q686.9583,1268.1956,687.017,1270.5234"/> </g> <g style="fill:rgb(23,191,53); fill-opacity:1.0; stroke-linejoin: miter"> <path d="M664.85785,1270.1423L664.8078,1270.8857Q664.64984,1271.8845,664.2211,1272.7051Q664.00714,1273.1155,663.72516,1273.4814Q663.6265,1273.6921,662.72736,1274.4792Q662.5534,1274.678,661.5009,1275.1985Q661.06915,1275.3792,660.6071,1275.4805Q659.6828,1275.6836,658.6368,1275.5708Q657.63837,1275.4126,656.8177,1274.9841Q656.4073,1274.7695,656.0413,1274.4878Q655.16547,1273.7241,655.0435,1273.49Q653.7072,1271.6353,653.93353,1269.6348Q654.03314,1268.6389,654.42633,1267.7971Q654.6231,1267.3767,654.893,1266.9946Q654.9864,1266.7754,655.8597,1265.9441Q657.311,1264.717,659.38007,1264.6653Q659.8973,1264.678,660.37604,1264.7646Q661.5389,1265.0447,661.72516,1265.189Q662.56647,1265.5825,663.25336,1266.2693Q663.59686,1266.6128,663.8669,1266.9949Q664.47784,1267.9836,664.5118,1268.2283Q664.8317,1269.1082,664.85785,1270.1423"/> </g> </g> <g> <g style="fill:rgb(252,184,38); fill-opacity:1.0; stroke-linejoin: miter"> <path d="M578.71954,1246.1628L576.5496,1246.2314Q569.98224,1246.6445,563.93353,1249.5371Q557.0805,1253.2905,554.74005,1256.0793Q544.82135,1266.5154,544.82196,1280.0618Q544.82245,1293.6084,554.74115,1304.0464Q565.1751,1313.9629,578.71967,1313.9629Q592.2657,1313.9631,602.7027,1304.0437Q612.6202,1293.6079,612.6202,1280.0625Q612.62006,1266.5173,602.7038,1256.0833Q592.26605,1246.1628,578.71954,1246.1628 Z M578.7211,1251.3916L580.55646,1251.45Q588.8276,1252.4111,592.8923,1255.1201Q597.9117,1257.9639,601.5673,1262.7146Q608.55646,1272.3442,607.15814,1283.7278Q606.6921,1287.3926,605.2941,1290.8623L603.66315,1294.2344Q602.5158,1296.8638,597.56976,1301.6853Q588.32355,1309.3745,576.8848,1308.6755Q571.3304,1308.3259,566.2144,1305.8799Q560.4184,1302.7056,558.4389,1300.3467Q550.04987,1291.5195,550.05023,1280.0623Q550.0507,1268.605,558.4389,1259.7793Q567.2646,1251.3918,578.7211,1251.3916"/> </g> <g style="fill:rgb(252,184,38); fill-opacity:1.0; stroke-linejoin: miter"> <path d="M595.42633,1270.523L595.3764,1271.2664Q595.0208,1273.5127,593.29584,1274.8594Q591.5588,1276.2048,589.20514,1275.9509Q586.9589,1275.5955,585.6121,1273.8704Q585.1806,1273.313,584.9012,1272.6553L584.66644,1271.9792Q584.47284,1271.2812,584.47064,1270.523Q584.5295,1268.1953,586.07513,1266.6497Q587.6209,1265.104,589.9484,1265.0454Q592.2762,1265.104,593.8221,1266.6497Q595.3674,1268.1953,595.42633,1270.523"/> </g> <g style="fill:rgb(252,184,38); fill-opacity:1.0; stroke-linejoin: miter"> <path d="M573.2669,1270.1423L573.2171,1270.886Q573.0589,1271.8843,572.63043,1272.7048Q572.4161,1273.1152,572.13434,1273.481Q572.0356,1273.6921,571.1363,1274.479Q570.96246,1274.678,569.91,1275.198Q569.47833,1275.3787,569.01605,1275.4805Q568.09186,1275.6833,567.0457,1275.5703Q566.0473,1275.4124,565.22675,1274.9839Q564.81647,1274.7695,564.4504,1274.4878Q563.5745,1273.7236,563.4527,1273.4897Q562.1164,1271.635,562.3427,1269.6345Q562.44244,1268.6389,562.8355,1267.7974Q563.0323,1267.377,563.30206,1266.9949Q563.39557,1266.7749,564.26874,1265.9441Q565.72003,1264.7168,567.7891,1264.6648Q568.30646,1264.6775,568.7851,1264.7644Q569.9478,1265.0444,570.1341,1265.1892Q570.9755,1265.5823,571.66266,1266.2688Q572.0059,1266.6125,572.2762,1266.9949Q572.887,1267.9836,572.92096,1268.2275Q573.2408,1269.1079,573.2669,1270.1423"/> </g> <g style="fill:rgb(252,184,38); fill-opacity:1.0; stroke-linejoin: miter"> <path d="M565.55084,1292.9333L565.55084,1292.9336L591.68365,1292.9333C592.5793,1292.9333,593.3056,1293.6594,593.3056,1294.5552C593.3056,1295.4512,592.5793,1296.177,591.68365,1296.177L591.68365,1296.1775L565.55084,1296.177C564.6552,1296.177,563.929,1295.4512,563.929,1294.5549C563.929,1293.6589,564.6552,1292.9333,565.55084,1292.9333 Z"/> </g> </g> <g> <g style="fill:rgb(255,13,0); fill-opacity:1.0; stroke-linejoin: miter"> <path d="M450.67523,1299.446L450.6139,1299.4451Q448.5761,1299.1304,448.8214,1297.0403Q450.15698,1293.7993,452.31842,1291.8186Q456.87012,1287.5176,463.64905,1287.3943L465.24475,1287.4692Q466.82587,1287.6216,468.31317,1288.0564Q471.3059,1288.9377,473.70587,1290.812Q476.10596,1292.6858,477.62415,1295.3687Q478.57623,1297.1873,478.44507,1297.241Q478.61945,1297.9233,477.93158,1298.8328Q476.70215,1299.9207,475.35486,1299.0115Q475.01147,1298.7007,474.97223,1298.6052Q474.57776,1297.4775,472.95587,1295.3638Q471.4442,1293.6316,469.36658,1292.5776Q468.33472,1292.0549,467.2024,1291.7275L466.05194,1291.4536Q464.8797,1291.2305,463.6485,1291.229Q459.81384,1291.2678,456.82697,1293.1436Q455.8496,1293.7571,455.02185,1294.54L454.2384,1295.3611L453.54327,1296.2583Q452.93512,1297.1045,452.36194,1298.4419Q452.33258,1298.5449,452.01843,1298.8984Q451.4544,1299.4353,450.67523,1299.446"/> </g> <g style="fill:rgb(255,13,0); fill-opacity:1.0; stroke-linejoin: miter"> <path d="M463.3363,1246.1626L461.16638,1246.2317Q454.59912,1246.6448,448.55035,1249.5374Q441.6974,1253.2905,439.35693,1256.0793Q429.43823,1266.5151,429.43878,1280.0615Q429.43945,1293.6084,439.35815,1304.0464Q449.7918,1313.9626,463.3366,1313.9626Q476.88275,1313.9626,487.31946,1304.0435Q497.23712,1293.6079,497.23694,1280.0625Q497.23682,1266.5171,487.32074,1256.083Q476.88293,1246.1626,463.3363,1246.1626 Z M463.3379,1251.3916L465.17322,1251.4502Q473.44434,1252.4111,477.5094,1255.1199Q482.52856,1257.9639,486.18414,1262.7144Q493.1734,1272.344,491.77515,1283.728Q491.30896,1287.3926,489.9109,1290.8623L488.27997,1294.2346Q487.13257,1296.8638,482.18665,1301.6853Q472.94037,1309.3745,461.5017,1308.6753Q455.9472,1308.3257,450.8313,1305.8796Q445.03522,1302.7058,443.05566,1300.3467Q434.66656,1291.5195,434.667,1280.0623Q434.6676,1268.605,443.05573,1259.779Q451.8814,1251.3916,463.3379,1251.3916"/> </g> <g style="fill:rgb(255,13,0); fill-opacity:1.0; stroke-linejoin: miter"> <path d="M480.04315,1270.523L479.99316,1271.2664Q479.63763,1273.5127,477.91266,1274.8594Q476.17572,1276.2051,473.82202,1275.9509Q471.57568,1275.5955,470.22906,1273.8706Q469.79742,1273.313,469.51794,1272.6553L469.28326,1271.9792Q469.08966,1271.2815,469.08752,1270.523Q469.14636,1268.1953,470.69208,1266.6497Q472.2378,1265.104,474.56537,1265.0454Q476.89313,1265.1038,478.43878,1266.6494Q479.9845,1268.1951,480.04315,1270.523"/> </g> <g style="fill:rgb(255,13,0); fill-opacity:1.0; stroke-linejoin: miter"> <path d="M457.88367,1270.1423L457.8338,1270.8857Q457.67578,1271.8845,457.24713,1272.7048Q457.03296,1273.1152,456.75122,1273.481Q456.65247,1273.6919,455.75323,1274.479Q455.57935,1274.678,454.52686,1275.1985Q454.0952,1275.3787,453.6328,1275.4805Q452.7088,1275.6833,451.66266,1275.5703Q450.66412,1275.4121,449.84357,1274.9836Q449.4333,1274.7695,449.06732,1274.4878Q448.19128,1273.7236,448.06958,1273.4897Q446.73315,1271.635,446.9596,1269.6353Q447.05896,1268.6389,447.45233,1267.7976Q447.64905,1267.377,447.919,1266.9946Q448.01245,1266.7751,448.88568,1265.9441Q450.3369,1264.7173,452.406,1264.6646Q452.92334,1264.678,453.40198,1264.7646Q454.56476,1265.0442,454.75098,1265.1892Q455.59247,1265.5823,456.2793,1266.2688Q456.62286,1266.6125,456.89294,1266.9946Q457.50385,1267.9836,457.53796,1268.228Q457.85773,1269.1079,457.88367,1270.1423"/> </g> </g> </g> </g> <g> <g style="fill:rgb(0,0,0); fill-opacity:1.0; stroke-linejoin: miter"> <path d="M515.4354,996.16693L512.9607,990.42706Q505.05316,973.0863,501.49454,956.8296Q499.32333,946.042,501.50092,936.33826Q503.8952,926.4215,512.32007,917.71204Q523.7257,906.65765,536.567,901.3178Q551.9126,894.46387,567.8844,894.09296Q583.6311,894.17236,595.1963,898.9421Q605.944,902.79443,613.42334,911.00867Q618.3325,917.25745,618.34607,927.10754Q627.71936,933.63086,630.3983,940.5167Q632.76965,946.3564,630.881,955.7415Q628.7654,966.61804,620.2766,988.0068L515.4354,996.16693"/> </g> <g style="fill:rgb(255,255,255); fill-opacity:1.0; stroke-linejoin: miter"> <path d="M521.5923,1048.2375L519.75867,1055.8228Q449.65286,1069.4205,429.476,1096.4832Q402.5345,1123.6649,376.8064,1220.9015L758.3047,1220.9022Q751.26697,1183.779,732.5138,1133.3588Q717.1935,1096.841,695.66016,1083.17Q684.04224,1074.4854,665.7706,1067.6642Q643.9612,1059.7292,603.5382,1053.5237L601.6509,1049.2975L521.5923,1048.2375 Z"/> </g> <g style="fill:rgb(255,176,146); fill-opacity:1.0; stroke-linejoin: miter"> <path d="M573.21204,1097.115L568.0115,1098.509Q533.9282,1078.2568,528.2417,1068.2736Q523.54114,1062.1605,522.9868,1048.8927Q515.3185,1042.4653,513.599,1036.7278Q511.50223,1031.4403,511.53812,1015.81757Q504.694,1018.5983,502.86984,1007.5196Q500.6647,994.55927,501.7421,987.8918Q502.8231,979.4546,511.52573,985.18695Q511.68802,948.5976,515.38367,939.66437Q517.6655,929.6194,528.34375,925.8804Q533.7422,924.47687,539.7827,924.66473Q543.41077,924.7246,547.11975,924.9354Q558.1312,926.6801,566.8435,926.9216L589.9645,926.35077Q600.5897,926.9929,603.896,929.5142Q611.0005,933.6079,613.2611,944.8915Q615.4579,951.3904,615.47034,980.61005Q625.1686,978.7499,626.698,985.071Q628.2217,992.3433,619.86426,1013.2498Q615.505,1023.04034,611.64954,1018.195Q612.0128,1025.7743,610.55615,1031.4283Q608.5449,1038.3937,601.8782,1048.8281Q603.8109,1057.3595,599.646,1065.8461Q593.8113,1076.5674,573.21204,1097.115"/> </g> <g style="fill:rgb(0,0,0); fill-opacity:1.0; stroke-linejoin: miter"> <path d="M629.7927,995.84283L629.49097,998.20123Q628.29065,1005.3155,625.4562,1009.3903Q622.5947,1013.4744,619.3694,1012.3475Q616.3203,1010.9067,614.97986,1005.1817Q614.5521,1003.33234,614.37146,1001.18365L614.2599,998.98334Q614.2134,996.72064,614.4563,994.2918Q615.2925,986.86237,617.9607,982.1658Q620.6188,977.48615,623.88684,977.6515Q627.1095,978.18835,628.77356,983.3138Q630.438,988.43976,629.7927,995.84283"/> </g> <g style="fill:rgb(0,0,0); fill-opacity:1.0; stroke-linejoin: miter"> <path d="M633.51465,995.88837L633.2146,998.24335Q633.13245,999.12555,632.23987,1002.6369Q631.8544,1003.9908,631.3883,1005.19464Q630.4552,1007.6049,629.1991,1009.4146Q628.56665,1010.31964,627.916,1010.96844Q626.2721,1012.3671,625.92175,1012.3388Q624.56335,1012.868,623.1332,1012.36725Q621.7826,1011.72845,620.76733,1010.2443Q620.25964,1009.502,619.8358,1008.5485Q619.57117,1008.2034,618.75366,1005.2132Q617.47107,999.0866,618.43274,992.72345Q618.89197,989.56,619.71265,986.9359Q620.12244,985.62494,620.62256,984.44885Q620.82336,983.76465,622.3085,981.25323Q624.72144,977.57904,627.6168,977.7257Q629.0459,977.96423,630.16724,979.1077Q630.7278,979.6792,631.2118,980.4769Q631.50146,980.7339,632.4916,983.37915Q633.2301,985.6536,633.5144,988.3753Q633.6566,988.98615,633.6852,992.7132Q633.65686,994.2443,633.51465,995.88837"/> </g> <g style="fill:rgb(0,0,0); fill-opacity:1.0; stroke-linejoin: miter"> <path d="M622.47876,1030.6201L622.47876,1030.6208L622.47876,1030.6206C622.4751,1031.2961,621.9241,1031.8414,621.24805,1031.8376C620.5719,1031.8341,620.02686,1031.2831,620.0305,1030.6068L620.0305,1030.6074L620.0305,1030.6068C620.0343,1029.9307,620.5851,1029.3856,621.26135,1029.3894C621.93726,1029.3931,622.4824,1029.9438,622.47876,1030.6201 Z"/> </g> <g style="fill:rgb(0,0,0); fill-opacity:1.0; stroke-linejoin: miter"> <path d="M623.64307,1001.55743L630.3164,1001.57916L636.9523,1001.6009Q636.9508,1004.8016,636.9496,1008.0052Q630.3071,1008.00165,623.6272,1007.998Q623.63513,1004.7762,623.64307,1001.55743"/> </g> <g style="fill:rgb(0,0,0); fill-opacity:0.99607843; stroke-linejoin: miter"> <path d="M628.88574,1013.1236L628.88574,1013.1241L628.88574,1013.1236L628.9064,1012.903C628.7396,1019.081,628.66626,1026.553,622.7062,1030.6411L622.7062,1030.642C617.09863,1034.4875,606.41223,1035.0436,596.60095,1035.6117C595.6686,1035.666,594.86914,1034.954,594.81506,1034.0214C594.761,1033.0892,595.47314,1032.2896,596.40515,1032.2357L596.40515,1032.2362C606.7217,1031.6378,616.16345,1031.0282,620.79346,1027.8527L620.79346,1027.8534C625.07056,1024.9186,625.34485,1019.51227,625.52563,1012.8118C625.5276,1012.7381,625.53455,1012.6639,625.54614,1012.59125L625.54614,1012.592L625.54614,1012.5911C625.69324,1011.66876,626.56006,1011.04047,627.4823,1011.1878C628.4044,1011.33453,629.0327,1012.2016,628.88574,1013.1236 Z"/> </g> <g style="fill:rgb(0,0,0); fill-opacity:1.0; stroke-linejoin: miter"> <path d="M598.17175,1035.0781L598.0073,1035.7971Q597.3096,1037.9368,595.41406,1038.984Q593.50684,1040.0286,591.2461,1039.4132Q589.1062,1038.716,588.05884,1036.8202Q587.72375,1036.2078,587.55347,1035.5217L587.4292,1034.8242Q587.3489,1034.1124,587.46497,1033.3711Q587.88525,1031.1051,589.6367,1029.8354Q591.38806,1028.5654,593.6721,1028.8713Q595.93787,1029.2913,597.20764,1031.0427Q598.4774,1032.7943,598.17175,1035.0781"/> </g> <g style="fill:rgb(0,0,0); fill-opacity:1.0; stroke-linejoin: miter"> <path d="M574.9928,1098.5521L568.5442,1099.0405L562.09534,1099.529Q558.2887,1104.7632,554.48206,1109.9973Q563.69324,1124.5674,572.9044,1139.1376Q577.5791,1122.9954,582.2538,1106.8534L574.9928,1098.5521"/> </g> <g style="fill:rgb(0,0,0); fill-opacity:1.0; stroke-linejoin: miter"> <path d="M592.02844,1065.3358L592.02856,1065.336L592.02856,1065.336L592.02844,1065.3358"/> </g> <g style="fill:rgb(0,0,0); fill-opacity:1.0; stroke-linejoin: miter"> <path d="M577.4907,1121.0806L562.245,1121.8435L554.1731,1220.9015L589.49475,1220.902L577.4907,1121.0806 Z"/> </g> <g style="fill:rgb(0,0,0); fill-opacity:1.0; stroke-linejoin: miter"> <path d="M621.43384,972.5664L621.43384,972.5669L621.43384,972.56714L621.43384,972.5664"/> </g> <g style="fill:rgb(0,0,0); fill-opacity:0.22352941; stroke-linejoin: miter"> <path d="M541.18066,1125.293L541.18066,1125.2935L563.80273,1098.9943L573.83374,1098.8375L597.27625,1121.9521L569.3832,1111.0698L541.18066,1125.293"/> </g> <g style="fill:rgb(0,0,0); fill-opacity:1.0; stroke-linejoin: miter"> <path d="M575.6206,1143.8728L575.6206,1143.873L575.6206,1143.8733L575.6206,1143.8728"/> </g> <g style="fill:rgb(0,0,0); fill-opacity:0.1882353; stroke-linejoin: miter"> <path d="M445.14728,1164.9208L456.12006,1220.9015L464.3005,1220.9017Q460.50034,1215.2557,457.15405,1205.3594Q453.45694,1194.7582,445.14728,1164.9208 Z"/> </g> <g style="fill:rgb(0,0,0); fill-opacity:0.1882353; stroke-linejoin: miter"> <path d="M684.9463,1170.6711L684.63806,1173.8984Q682.8961,1192.8945,681.2572,1203.3109Q680.0497,1211.6129,677.04675,1220.9012L685.98376,1220.902L684.9463,1170.6711"/> </g> <g style="fill:rgb(255,0,0); fill-opacity:0.18039216; stroke-linejoin: miter"> <path d="M600.91626,1050.3578L566.9658,1094.7406L523.89233,1049.1581Q533.7782,1059.1624,547.1498,1068.6259Q553.9027,1072.4497,555.50195,1072.8961Q559.1937,1074.2218,562.7471,1074.3972Q569.5824,1074.9232,578.713,1069.4984Q588.8013,1062.8693,600.91626,1050.3578"/> </g> </g> </g> </svg>